<svg width="17" height="17" viewBox="0 0 17 17" fill="none" xmlns="http://www.w3.org/2000/svg">
<g clip-path="url(#clip0_98_49)">
<g clip-path="url(#clip1_98_49)">
<mask id="mask0_98_49" style="mask-type:luminance" maskUnits="userSpaceOnUse" x="0" y="0" width="17" height="17">
<path d="M16.4 0.549988H0.400024V16.55H16.4V0.549988Z" fill="white"/>
</mask>
<g mask="url(#mask0_98_49)">
<path d="M13.2 0.549988H3.60002C1.83271 0.549988 0.400024 1.98268 0.400024 3.74999V13.35C0.400024 15.1173 1.83271 16.55 3.60002 16.55H13.2C14.9673 16.55 16.4 15.1173 16.4 13.35V3.74999C16.4 1.98268 14.9673 0.549988 13.2 0.549988Z" fill="#9CACA3"/>
<path d="M11.8547 5.69042C11.7909 5.62114 11.7032 5.5785 11.6093 5.5711L11.5815 5.56998C11.4873 5.56962 11.3964 5.60486 11.3271 5.66866C11.2578 5.73246 11.2152 5.8201 11.2078 5.91402H5.60556L5.6022 5.88622C5.58724 5.7909 5.536 5.70506 5.4592 5.6467C5.38236 5.58834 5.28592 5.56202 5.19012 5.57318C5.09428 5.58434 5.00652 5.63218 4.94516 5.70666C4.88384 5.78114 4.85372 5.87646 4.86112 5.97262L5.39404 12.7221L5.3978 12.7595C5.42116 12.9393 5.50916 13.1046 5.64544 13.2243C5.78172 13.344 5.95692 13.41 6.13828 13.41H10.675L10.7126 13.4091C10.8937 13.3999 11.0653 13.3252 11.1954 13.1987C11.3254 13.0723 11.405 12.9029 11.4193 12.7221L11.9522 5.97282L11.9533 5.94482C11.9537 5.85062 11.9185 5.75974 11.8547 5.69042Z" fill="#6F8C85"/>
<path d="M12.5067 5.18998C12.6035 5.18954 12.6968 5.22678 12.7667 5.29382C12.8367 5.3609 12.8778 5.4525 12.8814 5.5493C12.8851 5.6461 12.8509 5.74054 12.7862 5.81266C12.7215 5.88474 12.6313 5.92886 12.5347 5.9357L12.5067 5.93666H4.29334C4.19648 5.93706 4.10322 5.89982 4.0333 5.83278C3.96336 5.76574 3.92224 5.67414 3.9186 5.57734C3.91498 5.4805 3.94912 5.3861 4.01382 5.31398C4.07852 5.24186 4.16872 5.19774 4.26534 5.1909L4.29334 5.18998H12.5067Z" fill="#6F8C85"/>
<path d="M9.33334 3.69666C9.62314 3.69666 9.90162 3.80896 10.1103 4.00998C10.3191 4.211 10.4417 4.4851 10.4526 4.77468L10.4533 4.81668V5.56332C10.4538 5.6602 10.4165 5.75348 10.3495 5.8234C10.2824 5.89332 10.1908 5.93444 10.094 5.93808C9.99722 5.94172 9.90278 5.90756 9.83066 5.84288C9.75858 5.77816 9.71446 5.68796 9.70762 5.59132L9.7067 5.56332V4.81668C9.7067 4.72248 9.67114 4.63176 9.6071 4.56268C9.54306 4.49364 9.45526 4.45134 9.36134 4.44426L9.33334 4.44334H7.46666C7.3725 4.4433 7.28178 4.47888 7.2127 4.54292C7.14366 4.60696 7.10134 4.69476 7.09426 4.78868L7.09334 4.81668V5.56332C7.09378 5.6602 7.05654 5.75348 6.9895 5.8234C6.92242 5.89332 6.83082 5.93444 6.73402 5.93808C6.63722 5.94172 6.54278 5.90756 6.47066 5.84288C6.39858 5.77816 6.35446 5.68796 6.34762 5.59132L6.34666 5.56332V4.81668C6.34666 4.52688 6.45898 4.24838 6.65998 4.03968C6.86102 3.83096 7.1351 3.70828 7.42466 3.69742L7.46666 3.69666H9.33334Z" fill="#6F8C85"/>
<path d="M9.89334 11.1633C10.0995 11.1633 10.2667 11.3305 10.2667 11.5367C10.2667 11.5857 10.257 11.6342 10.2383 11.6795C10.2195 11.7248 10.192 11.766 10.1573 11.8006C10.1227 11.8353 10.0815 11.8628 10.0362 11.8815C9.99094 11.9003 9.94238 11.91 9.89334 11.91H6.9067C6.85766 11.91 6.8091 11.9003 6.76382 11.8815C6.71854 11.8628 6.67738 11.8353 6.6427 11.8006C6.60802 11.766 6.58054 11.7248 6.56178 11.6795C6.54302 11.6342 6.53334 11.5857 6.53334 11.5367C6.53334 11.3305 6.7005 11.1633 6.9067 11.1633H9.89334Z" fill="#B5B5B5"/>
</g>
</g>
</g>
<defs>
<clipPath id="clip0_98_49">
<rect width="16" height="16" fill="white" transform="translate(0.400024 0.549988)"/>
</clipPath>
<clipPath id="clip1_98_49">
<rect width="16" height="16" fill="white" transform="translate(0.400024 0.549988)"/>
</clipPath>
</defs>
</svg>
