<svg width="800" height="800" viewBox="0 0 800 800" fill="none" xmlns="http://www.w3.org/2000/svg">
<g clip-path="url(#clip0_92_34)">
<path d="M640 0H160C71.6344 0 0 71.6344 0 160V640C0 728.366 71.6344 800 160 800H640C728.366 800 800 728.366 800 640V160C800 71.6344 728.366 0 640 0Z" fill="#9CACA3"/>
<path d="M572.733 257.022C569.543 253.558 565.161 251.426 560.465 251.056L559.073 251C554.363 250.982 549.821 252.744 546.355 255.934C542.889 259.124 540.759 263.506 540.389 268.202H260.277L260.109 266.812C259.361 262.046 256.799 257.754 252.959 254.836C249.117 251.918 244.295 250.602 239.505 251.16C234.713 251.718 230.325 254.11 227.257 257.834C224.191 261.558 222.685 266.324 223.055 271.132L249.701 608.608L249.889 610.474C251.057 619.468 255.457 627.73 262.271 633.714C269.085 639.7 277.845 643.002 286.913 643H513.751L515.627 642.954C524.683 642.496 533.265 638.76 539.767 632.438C546.269 626.118 550.249 617.648 550.963 608.608L577.609 271.142L577.665 269.742C577.685 265.032 575.923 260.488 572.733 257.022Z" fill="#BBDCD1"/>
<path d="M605.334 232C610.176 231.978 614.84 233.84 618.336 237.192C621.832 240.546 623.888 245.126 624.07 249.966C624.252 254.806 622.544 259.528 619.31 263.134C616.074 266.738 611.564 268.944 606.734 269.286L605.334 269.334H194.666C189.823 269.354 185.16 267.492 181.664 264.14C178.167 260.788 176.111 256.208 175.929 251.368C175.748 246.526 177.455 241.806 180.69 238.2C183.925 234.594 188.435 232.388 193.266 232.046L194.666 232H605.334Z" fill="#BBDCD1"/>
<path d="M446.666 157.333C461.156 157.333 475.08 162.948 485.516 172.999C495.952 183.05 502.086 196.755 502.628 211.234L502.666 213.334V250.666C502.688 255.51 500.826 260.174 497.474 263.67C494.12 267.166 489.54 269.222 484.7 269.404C479.86 269.586 475.138 267.878 471.532 264.644C467.928 261.408 465.722 256.898 465.38 252.066L465.334 250.666V213.334C465.334 208.624 463.556 204.088 460.354 200.634C457.152 197.182 452.762 195.067 448.066 194.713L446.666 194.667H353.332C348.624 194.665 344.088 196.444 340.634 199.646C337.182 202.848 335.066 207.238 334.712 211.934L334.666 213.334V250.666C334.688 255.51 332.826 260.174 329.474 263.67C326.12 267.166 321.54 269.222 316.7 269.404C311.86 269.586 307.138 267.878 303.532 264.644C299.928 261.408 297.722 256.898 297.38 252.066L297.332 250.666V213.334C297.332 198.844 302.948 184.919 312.998 174.484C323.05 164.048 336.754 157.914 351.232 157.371L353.332 157.333H446.666Z" fill="#BBDCD1"/>
<path d="M474.666 530.666C484.976 530.666 493.334 539.024 493.334 549.334C493.334 551.784 492.85 554.212 491.912 556.476C490.974 558.742 489.6 560.8 487.866 562.532C486.132 564.266 484.076 565.64 481.81 566.578C479.546 567.518 477.118 568 474.666 568H325.334C322.882 568 320.454 567.518 318.19 566.578C315.926 565.64 313.868 564.266 312.134 562.532C310.4 560.8 309.026 558.742 308.088 556.476C307.15 554.212 306.666 551.784 306.666 549.334C306.666 539.024 315.024 530.666 325.334 530.666H474.666Z" fill="#B5B5B5"/>
</g>
<defs>
<clipPath id="clip0_92_34">
<rect width="800" height="800" fill="white"/>
</clipPath>
</defs>
</svg>
