<svg width="800" height="800" viewBox="0 0 800 800" fill="none" xmlns="http://www.w3.org/2000/svg">
<g clip-path="url(#clip0_92_40)">
<path d="M640 0H160C71.6344 0 0 71.6344 0 160V640C0 728.366 71.6344 800 160 800H640C728.366 800 800 728.366 800 640V160C800 71.6344 728.366 0 640 0Z" fill="#9CACA3"/>
<path d="M400 214.667H261C235.411 214.667 214.667 235.411 214.667 261V539C214.667 564.59 235.411 585.333 261 585.333H539C564.59 585.333 585.333 564.59 585.333 539V400M330.5 469.5V411.583L533.208 208.875C549.203 192.882 575.131 192.882 591.125 208.875C607.119 224.868 607.119 250.798 591.125 266.792L481.083 376.833L388.417 469.5H330.5Z" stroke="#BBDCD1" stroke-width="66.6667" stroke-linecap="round" stroke-linejoin="round"/>
</g>
<defs>
<clipPath id="clip0_92_40">
<rect width="800" height="800" fill="white"/>
</clipPath>
</defs>
</svg>
